<svg width="281" height="205" viewBox="0 0 281 205" fill="none" xmlns="http://www.w3.org/2000/svg">
<g opacity="0.7" clip-path="url(#clip0)">
<path d="M261.16 184.485H226.867V204.397H261.16V184.485Z" fill="#FFCC66"/>
<path d="M190.74 199.79C190.432 200.844 190.289 202.073 190.929 202.963C191.282 203.409 191.747 203.752 192.276 203.956C193.637 204.492 195.101 204.708 196.558 204.588C196.837 204.601 197.115 204.556 197.376 204.455C197.637 204.355 197.874 204.201 198.072 204.003C201.451 201.188 203.737 197.264 204.527 192.922C204.591 192.697 204.579 192.458 204.493 192.242C204.381 192.074 204.226 191.941 204.043 191.858C203.291 191.384 202.481 191.011 201.632 190.75C196.99 189.544 191.89 195.851 190.74 199.79Z" fill="#2F2E41"/>
<path d="M239.424 185.023C240.048 185.752 240.816 186.341 241.68 186.753C242.114 186.955 242.587 187.055 243.065 187.047C243.542 187.039 244.012 186.922 244.438 186.706C245.716 185.974 246.077 184.274 245.975 182.798C245.787 180.069 244.492 177.61 243.003 175.381C242.532 174.675 241.49 172.576 240.575 172.55C240.14 172.538 238.515 174.124 238.073 174.426C236.459 175.529 235.342 176.318 235.677 178.435C236.052 180.796 237.845 183.323 239.424 185.023Z" fill="#2F2E41"/>
<path d="M225.276 72.1539C218.407 71.6178 211.845 71.8165 204.963 71.461C204.385 71.4311 204.664 78.0937 204.065 81.7115C203.757 83.5709 193.398 192.499 194.684 192.72C197.985 193.415 201.325 193.913 204.685 194.21C206.048 194.331 218.753 123.356 218.144 117.588C219.807 120.043 225.666 131.38 228.629 144.42C232.537 161.626 233.688 181.087 236.118 179.996C237.682 177.834 239.804 176.145 242.255 175.111C246.27 173.607 239.762 90.8435 232.886 87.0385C232.802 84.6161 232.714 82.1343 231.807 79.8889C230.527 76.7218 228.003 74.193 225.276 72.1539Z" fill="#2F2E41"/>
<path d="M280.87 205H91.5713V204.276H281L280.87 205Z" fill="#3F3D56"/>
<path d="M155.313 97.6892H0V128.551H155.313V97.6892Z" fill="#E6E6E6"/>
<path d="M155.313 48.9248H0V79.7862H155.313V48.9248Z" fill="#E6E6E6"/>
<path d="M155.313 0H0V30.8613H155.313V0Z" fill="#E6E6E6"/>
<path d="M3.31096 27.5289H152.002V3.3323H3.31096V27.5289Z" fill="white"/>
<path d="M3.31096 76.5614H152.002V52.3648H3.31096V76.5614Z" fill="white"/>
<path d="M3.31093 125.218H152.002V101.022H3.31093V125.218Z" fill="white"/>
<path d="M16.3277 24.4486C21.3864 24.4486 25.4872 20.3214 25.4872 15.2303C25.4872 10.1391 21.3864 6.01196 16.3277 6.01196C11.2691 6.01196 7.16828 10.1391 7.16828 15.2303C7.16828 20.3214 11.2691 24.4486 16.3277 24.4486Z" fill="#FFCC66"/>
<path d="M128.631 11.6231H38.2308V13.6271H128.631V11.6231Z" fill="#FFCC66"/>
<path d="M128.631 16.8334H38.2308V18.8374H128.631V16.8334Z" fill="#FFCC66"/>
<path d="M16.3277 73.7742C21.3864 73.7742 25.4872 69.647 25.4872 64.5559C25.4872 59.4648 21.3864 55.3376 16.3277 55.3376C11.2691 55.3376 7.16828 59.4648 7.16828 64.5559C7.16828 69.647 11.2691 73.7742 16.3277 73.7742Z" fill="#CCCCCC"/>
<path d="M128.631 60.9487H38.2308V62.9527H128.631V60.9487Z" fill="#CCCCCC"/>
<path d="M128.631 66.1591H38.2308V68.1631H128.631V66.1591Z" fill="#CCCCCC"/>
<path d="M16.3277 122.539C21.3864 122.539 25.4872 118.411 25.4872 113.32C25.4872 108.229 21.3864 104.102 16.3277 104.102C11.2691 104.102 7.16827 108.229 7.16827 113.32C7.16827 118.411 11.2691 122.539 16.3277 122.539Z" fill="#CCCCCC"/>
<path d="M128.631 109.713H38.2308V111.717H128.631V109.713Z" fill="#CCCCCC"/>
<path d="M128.631 114.923H38.2308V116.927H128.631V114.923Z" fill="#CCCCCC"/>
<path d="M223.584 19.3195C220.018 13.2565 212.964 12.9739 212.964 12.9739C212.964 12.9739 206.091 12.0893 201.682 21.3234C197.572 29.9303 191.9 38.2404 200.769 40.2552L202.371 35.2372L203.363 40.6288C204.625 40.7202 205.892 40.742 207.157 40.6941C216.655 40.3855 225.7 40.7844 225.409 37.3543C225.022 32.7945 227.014 25.1534 223.584 19.3195Z" fill="#2F2E41"/>
<path d="M210.431 39.9769C210.448 40.6593 210.443 41.3791 210.106 41.9715C209.438 43.1461 207.807 43.3219 206.826 44.2476C205.795 45.2211 205.678 46.8011 205.629 48.2235C205.577 49.7105 205.534 51.2463 206.073 52.6318C206.403 53.395 206.821 54.1168 207.317 54.7828C207.916 55.6516 208.52 56.5165 209.13 57.3775C209.456 57.8624 209.819 58.3209 210.216 58.7487C211.308 59.8686 212.807 60.4884 214.303 60.9307C215.269 61.2165 216.313 61.439 217.272 61.1286C217.907 60.8794 218.491 60.5174 218.999 60.06C219.74 59.5249 220.399 58.8825 220.953 58.1534C221.759 56.9777 221.982 55.5059 222.148 54.0878C222.642 49.8944 222.834 45.6706 222.723 41.4494C222.743 40.9894 222.661 40.5306 222.483 40.1065C221.987 39.1305 220.656 38.9221 219.955 38.0825C219.356 37.3646 219.332 36.3401 219.337 35.4026L219.35 33.0157C219.371 32.8146 219.33 32.6118 219.235 32.4342C219.148 32.3385 219.043 32.261 218.926 32.2062C218.809 32.1514 218.683 32.1203 218.554 32.1148C217.08 31.8686 215.586 31.7679 214.092 31.8143C212.882 31.8516 210.558 31.7496 209.511 32.4283C208.561 33.0443 209.751 34.7459 209.971 35.7016C210.267 37.1075 210.421 38.5398 210.431 39.9769V39.9769Z" fill="#FFB8B8"/>
<path d="M213.21 35.8781C218.504 35.8781 222.796 31.5587 222.796 26.2305C222.796 20.9024 218.504 16.583 213.21 16.583C207.916 16.583 203.624 20.9024 203.624 26.2305C203.624 31.5587 207.916 35.8781 213.21 35.8781Z" fill="#FFB8B8"/>
<path d="M211.039 47.0949C206.092 31.3156 203.485 53.479 200.366 59.5305C200.395 63.7029 200.507 75.2431 201.477 79.6172C205.243 96.6091 223.896 95.2751 229.505 80.9446C232.492 73.3109 225.864 54.392 226.089 45.5645C217.875 37.188 217.368 63.7625 211.039 47.0949Z" fill="#FFCC66"/>
<path d="M205.608 41.6825C194.888 46.9264 200.002 61.0151 196.116 70.2355C193.013 82.8856 185.12 86.8635 203.166 87.158C207.054 75.5952 203.257 63.0353 208.558 51.2615C208.923 46.6502 210.495 44.9161 210.355 41.0111C209.316 39.3903 206.623 41.1804 205.608 41.6825Z" fill="#575A88"/>
<path d="M222.007 18.7352L215.038 15.0611L205.415 16.5641L203.424 25.4149L208.38 25.2227L209.765 21.9711V25.169L212.052 25.0807L213.38 19.904L214.209 25.4149L222.339 25.2476L222.007 18.7352Z" fill="#2F2E41"/>
<path d="M217.697 46.1236C223.215 45.4755 217.835 38.8065 222.215 38.9198C235.329 36.6999 239.252 44.8745 234.265 56.2841C229.693 65.4229 245.865 78.2604 236.831 83.374C233.624 84.5585 229.033 88.2846 225.899 86.6624C220.868 73.9361 220.687 59.3957 217.697 46.1236Z" fill="#575A88"/>
<path d="M233.055 82.4541C231.133 83.3787 229.614 84.8492 228.328 86.5576C228.055 86.9192 228.421 87.5937 229.236 87.5827C229.995 87.5724 230.449 86.5928 231.208 86.5825C231.44 88.6245 231.86 90.6404 232.463 92.6042C233.977 91.2657 234.884 89.3816 235.752 87.5507L237.467 83.9316C238.097 82.6029 238.727 81.2737 239.294 79.917C239.448 79.5998 239.544 79.2568 239.575 78.9051C239.65 76.5703 237.363 76.5562 236.376 78.0173C235.298 79.6155 234.962 81.5361 233.055 82.4541Z" fill="#FFB8B8"/>
<path d="M233.449 42.3147C234.915 43.8482 236.392 45.3947 237.53 47.1884C238.669 48.982 244.557 65.1136 244.796 65.4557C245.646 66.7183 244.653 69.9824 244.603 70.1693C244.505 70.7554 243.276 76.6084 242.968 77.9009C242.753 78.8053 242.756 79.747 242.615 80.6662C242.474 81.5854 242.157 82.5306 241.453 83.1337C241.364 83.2203 241.253 83.2823 241.133 83.3139C240.743 83.3905 240.477 82.9362 240.341 82.5605C239.915 81.3905 239.486 80.1978 238.736 79.2065C237.986 78.2153 236.85 77.439 235.612 77.4428C235.51 77.1964 235.467 76.9289 235.488 76.6626C235.509 76.3963 235.593 76.139 235.733 75.9119C235.981 75.4411 236.345 75.0421 236.618 74.5859C236.965 73.9642 237.201 73.2863 237.315 72.5827C237.926 69.3507 237.311 66.0054 235.59 63.2078C235.191 62.5444 234.707 61.9359 234.152 61.3977C233.547 60.8276 232.84 60.3693 232.282 59.7532C231.421 58.7281 230.901 57.4579 230.794 56.1204C230.691 54.7918 230.726 53.456 230.899 52.1347C231.15 49.5127 231.473 46.8869 231.845 44.2795C231.874 43.9398 231.961 43.6078 232.103 43.2984C232.395 42.75 232.889 42.5793 233.449 42.3147Z" fill="#575A88"/>
<path d="M201.444 78.5412C200.458 77.08 198.171 77.0942 198.245 79.4289C198.277 79.7807 198.372 80.1236 198.527 80.4408C199.094 81.7975 199.724 83.1268 200.354 84.4555L202.069 88.0746C202.936 89.9055 203.843 91.7896 205.358 93.128C205.96 91.1643 206.381 89.1484 206.613 87.1064C207.372 87.1167 207.825 88.0963 208.584 88.1066C209.4 88.1176 209.765 87.4431 209.493 87.0814C208.207 85.3731 206.687 83.9026 204.766 82.9779C202.859 82.06 202.523 80.1393 201.444 78.5412Z" fill="#FFB8B8"/>
<path d="M205.718 43.8223C205.86 44.1317 205.947 44.4637 205.976 44.8033C206.348 47.4108 206.671 50.0366 206.922 52.6586C207.094 53.9799 207.129 55.3156 207.027 56.6442C206.919 57.9817 206.399 59.252 205.539 60.277C204.981 60.8931 204.274 61.3514 203.669 61.9215C203.114 62.4598 202.63 63.0682 202.23 63.7316C200.51 66.5293 199.895 69.8745 200.506 73.1066C200.62 73.8101 200.856 74.4881 201.202 75.1097C201.476 75.566 201.84 75.965 202.088 76.4358C202.227 76.6628 202.311 76.9202 202.332 77.1865C202.354 77.4527 202.311 77.7202 202.209 77.9667C200.971 77.9629 199.834 78.7392 199.085 79.7304C198.335 80.7216 197.905 81.9144 197.48 83.0843C197.343 83.4601 197.078 83.9144 196.687 83.8377C196.567 83.8061 196.457 83.7441 196.368 83.6576C195.664 83.0545 195.347 82.1092 195.206 81.1901C195.065 80.2709 195.068 79.3292 194.852 78.4247C194.545 77.1322 193.316 71.2793 193.218 70.6931C193.168 70.5062 192.175 67.2421 193.025 65.9795C193.264 65.6375 199.152 49.5059 200.29 47.7122C201.429 45.9186 202.905 44.372 204.372 42.8385C204.931 43.1031 205.425 43.2739 205.718 43.8223Z" fill="#575A88"/>
</g>
<defs>
<clipPath id="clip0">
<rect width="281" height="205" fill="white"/>
</clipPath>
</defs>
</svg>
