<svg width="276" height="45" viewBox="0 0 276 45" fill="none" xmlns="http://www.w3.org/2000/svg">
<path d="M17.5049 2.45312H24.8291V27.0625C24.8291 29.3249 24.3245 31.3268 23.3154 33.0684C22.3226 34.7936 20.9147 36.1283 19.0918 37.0723C17.2689 38.0163 15.21 38.4883 12.915 38.4883C9.15527 38.4883 6.22559 37.5361 4.12598 35.6318C2.02637 33.7113 0.976562 31.0013 0.976562 27.502H8.34961C8.34961 29.2435 8.71582 30.5293 9.44824 31.3594C10.1807 32.1895 11.3363 32.6045 12.915 32.6045C14.3148 32.6045 15.4297 32.1243 16.2598 31.1641C17.0898 30.2038 17.5049 28.8366 17.5049 27.0625V2.45312ZM29.541 24.5479C29.541 21.9274 30.0456 19.5918 31.0547 17.541C32.0638 15.4902 33.5124 13.9033 35.4004 12.7803C37.3047 11.6572 39.5101 11.0957 42.0166 11.0957C45.5811 11.0957 48.4863 12.1862 50.7324 14.3672C52.9948 16.5482 54.2562 19.5104 54.5166 23.2539L54.5654 25.0605C54.5654 29.1133 53.4342 32.3685 51.1719 34.8262C48.9095 37.2676 45.874 38.4883 42.0654 38.4883C38.2568 38.4883 35.2132 37.2676 32.9346 34.8262C30.6722 32.3848 29.541 29.0645 29.541 24.8652V24.5479ZM36.5967 25.0605C36.5967 27.5671 37.0687 29.4876 38.0127 30.8223C38.9567 32.1406 40.3076 32.7998 42.0654 32.7998C43.7744 32.7998 45.109 32.1488 46.0693 30.8467C47.0296 29.5283 47.5098 27.4287 47.5098 24.5479C47.5098 22.0902 47.0296 20.1859 46.0693 18.835C45.109 17.484 43.7581 16.8086 42.0166 16.8086C40.2913 16.8086 38.9567 17.484 38.0127 18.835C37.0687 20.1696 36.5967 22.2448 36.5967 25.0605ZM82.7148 25.0361C82.7148 29.2679 81.8115 32.5719 80.0049 34.9482C78.1982 37.3083 75.6755 38.4883 72.4365 38.4883C69.5719 38.4883 67.2852 37.3896 65.5762 35.1924L65.2588 38H58.9111V0.5H65.9668V13.9521C67.5944 12.0479 69.7347 11.0957 72.3877 11.0957C75.6104 11.0957 78.1331 12.2839 79.9561 14.6602C81.7952 17.0202 82.7148 20.3486 82.7148 24.6455V25.0361ZM75.6592 24.5234C75.6592 21.8542 75.236 19.9092 74.3896 18.6885C73.5433 17.4515 72.2819 16.833 70.6055 16.833C68.3594 16.833 66.8132 17.7526 65.9668 19.5918V30.0166C66.8294 31.8721 68.3919 32.7998 70.6543 32.7998C72.9329 32.7998 74.4303 31.6768 75.1465 29.4307C75.4883 28.3564 75.6592 26.7207 75.6592 24.5234ZM101.392 30.7002C101.392 29.8376 100.96 29.1621 100.098 28.6738C99.2513 28.1693 97.8841 27.7217 95.9961 27.3311C89.7135 26.0127 86.5723 23.3434 86.5723 19.3232C86.5723 16.9795 87.5407 15.0264 89.4775 13.4639C91.4307 11.8851 93.9779 11.0957 97.1191 11.0957C100.472 11.0957 103.149 11.8851 105.151 13.4639C107.17 15.0426 108.179 17.0934 108.179 19.6162H101.123C101.123 18.6071 100.798 17.777 100.146 17.126C99.4954 16.4587 98.4782 16.125 97.0947 16.125C95.9066 16.125 94.987 16.3936 94.3359 16.9307C93.6849 17.4678 93.3594 18.1514 93.3594 18.9814C93.3594 19.7627 93.7256 20.3975 94.458 20.8857C95.2067 21.3577 96.46 21.7728 98.2178 22.1309C99.9756 22.4727 101.457 22.8633 102.661 23.3027C106.388 24.6699 108.252 27.0381 108.252 30.4072C108.252 32.8161 107.218 34.7692 105.151 36.2666C103.084 37.7477 100.415 38.4883 97.1436 38.4883C94.93 38.4883 92.9606 38.0977 91.2354 37.3164C89.5264 36.5189 88.1836 35.4365 87.207 34.0693C86.2305 32.6859 85.7422 31.1966 85.7422 29.6016H92.4316C92.4967 30.8548 92.9606 31.8151 93.8232 32.4824C94.6859 33.1497 95.8415 33.4834 97.29 33.4834C98.641 33.4834 99.6582 33.2311 100.342 32.7266C101.042 32.2057 101.392 31.5303 101.392 30.7002Z" fill="#FFCC66"/>
<path d="M118.604 44.5918H114.331V2.45312H118.604V44.5918Z" fill="#E1E1E1"/>
<path d="M132.3 5.1875V11.584H137.231V15.0752H132.3V31.457C132.3 32.515 132.52 33.3125 132.959 33.8496C133.398 34.3704 134.147 34.6309 135.205 34.6309C135.726 34.6309 136.442 34.5332 137.354 34.3379V38C136.165 38.3255 135.01 38.4883 133.887 38.4883C131.868 38.4883 130.347 37.8779 129.321 36.6572C128.296 35.4365 127.783 33.7031 127.783 31.457V15.0752H122.974V11.584H127.783V5.1875H132.3ZM155.298 15.6367C154.614 15.5228 153.874 15.4658 153.076 15.4658C150.114 15.4658 148.104 16.7272 147.046 19.25V38H142.529V11.584H146.924L146.997 14.6357C148.478 12.2757 150.578 11.0957 153.296 11.0957C154.175 11.0957 154.842 11.2096 155.298 11.4375V15.6367ZM174.805 38C174.544 37.4792 174.333 36.5514 174.17 35.2168C172.07 37.3978 169.564 38.4883 166.65 38.4883C164.046 38.4883 161.906 37.7559 160.229 36.291C158.569 34.8099 157.739 32.9382 157.739 30.6758C157.739 27.9251 158.781 25.793 160.864 24.2793C162.964 22.7493 165.91 21.9844 169.702 21.9844H174.097V19.9092C174.097 18.3304 173.625 17.0771 172.681 16.1494C171.737 15.2054 170.345 14.7334 168.506 14.7334C166.895 14.7334 165.544 15.1403 164.453 15.9541C163.363 16.7679 162.817 17.7526 162.817 18.9082H158.276C158.276 17.5898 158.74 16.3203 159.668 15.0996C160.612 13.8626 161.882 12.8861 163.477 12.1699C165.088 11.4538 166.854 11.0957 168.774 11.0957C171.818 11.0957 174.202 11.8607 175.928 13.3906C177.653 14.9043 178.548 16.9958 178.613 19.665V31.8232C178.613 34.2484 178.923 36.1771 179.541 37.6094V38H174.805ZM167.31 34.5576C168.726 34.5576 170.068 34.1914 171.338 33.459C172.607 32.7266 173.527 31.7744 174.097 30.6025V25.1826H170.557C165.023 25.1826 162.256 26.8021 162.256 30.041C162.256 31.457 162.728 32.5638 163.672 33.3613C164.616 34.1589 165.828 34.5576 167.31 34.5576ZM196.289 34.8018C197.9 34.8018 199.308 34.3135 200.513 33.3369C201.717 32.3604 202.384 31.1396 202.515 29.6748H206.787C206.706 31.1885 206.185 32.6289 205.225 33.9961C204.264 35.3633 202.979 36.4538 201.367 37.2676C199.772 38.0814 198.079 38.4883 196.289 38.4883C192.692 38.4883 189.827 37.292 187.695 34.8994C185.579 32.4906 184.521 29.2028 184.521 25.0361V24.2793C184.521 21.7077 184.993 19.4209 185.938 17.4189C186.882 15.417 188.232 13.8626 189.99 12.7559C191.764 11.6491 193.856 11.0957 196.265 11.0957C199.227 11.0957 201.685 11.9827 203.638 13.7568C205.607 15.5309 206.657 17.834 206.787 20.666H202.515C202.384 18.957 201.733 17.5573 200.562 16.4668C199.406 15.36 197.974 14.8066 196.265 14.8066C193.97 14.8066 192.188 15.6367 190.918 17.2969C189.665 18.9408 189.038 21.3252 189.038 24.4502V25.3047C189.038 28.3483 189.665 30.6921 190.918 32.3359C192.171 33.9798 193.962 34.8018 196.289 34.8018ZM219.238 25.7686L216.406 28.7227V38H211.89V0.5H216.406V23.1807L218.823 20.2754L227.051 11.584H232.544L222.266 22.6191L233.74 38H228.442L219.238 25.7686ZM247.681 38.4883C244.1 38.4883 241.187 37.3164 238.94 34.9727C236.694 32.6126 235.571 29.4632 235.571 25.5244V24.6943C235.571 22.0739 236.068 19.7383 237.061 17.6875C238.07 15.6204 239.469 14.0091 241.26 12.8535C243.066 11.6816 245.02 11.0957 247.119 11.0957C250.553 11.0957 253.223 12.2269 255.127 14.4893C257.031 16.7516 257.983 19.9906 257.983 24.2061V26.0859H240.088C240.153 28.6901 240.91 30.7979 242.358 32.4092C243.823 34.0042 245.679 34.8018 247.925 34.8018C249.52 34.8018 250.871 34.4762 251.978 33.8252C253.084 33.1742 254.053 32.3115 254.883 31.2373L257.642 33.3857C255.428 36.7874 252.108 38.4883 247.681 38.4883ZM247.119 14.8066C245.296 14.8066 243.766 15.474 242.529 16.8086C241.292 18.127 240.527 19.9824 240.234 22.375H253.467V22.0332C253.337 19.7383 252.718 17.9642 251.611 16.7109C250.505 15.4414 249.007 14.8066 247.119 14.8066ZM276.001 15.6367C275.317 15.5228 274.577 15.4658 273.779 15.4658C270.817 15.4658 268.807 16.7272 267.749 19.25V38H263.232V11.584H267.627L267.7 14.6357C269.181 12.2757 271.281 11.0957 273.999 11.0957C274.878 11.0957 275.545 11.2096 276.001 11.4375V15.6367Z" fill="#006666"/>
</svg>
